# XSI Wavefront OBJ Export v3.0
# File Created: Wed Jun 25 21:50:07 2014
# XSI Version: 12.0.921.0
mtllib ship.mtl

o ship
# Hierarchy (from self to top father)
g ship

#begin 84 vertices
v 204.574809 -4.683805 -36.824316
v 239.011598 -16.031669 10.069991
v 205.636842 14.248480 1.424764
v 211.098107 5.000000 -5.000000
v 202.370508 -3.727599 5.498405
v 211.098107 -5.000000 12.784311
v 201.098107 5.000000 12.784311
v 211.098107 5.000000 12.784311
v 173.184616 -16.031669 10.069991
v 207.621404 -4.683805 -36.824316
v 204.574809 -1.637210 -36.824316
v 207.621404 -1.637210 -36.824316
v 173.184616 -14.787352 10.069991
v 173.184616 -16.031669 13.761748
v 173.184616 -14.787352 13.761748
v 201.098107 -5.000000 -5.000000
v 211.098107 -5.000000 -5.000000
v 239.011598 -14.787352 10.069991
v 239.011598 -16.031669 13.761748
v 239.011598 -14.787352 13.761748
v 201.098107 5.000000 -5.000000
v 206.890064 5.000000 0.450031
v 205.306150 5.000000 7.334280
v 206.890064 5.000000 7.334280
v 205.306150 5.000000 0.450031
v 206.890064 13.301419 6.180495
v 205.306150 13.301419 10.144021
v 206.890064 13.301419 10.144021
v 205.306150 13.301419 6.180495
v 206.559372 13.485895 1.424764
v 203.196921 13.485895 15.210731
v 209.690542 13.485895 11.035325
v 205.636842 13.485895 1.424764
v 206.559372 14.248480 1.424764
v 202.505672 14.248480 11.035325
v 208.999293 15.592116 12.827877
v 203.196921 12.142259 12.827877
v 208.999293 12.142259 17.003284
v 203.196921 15.592116 17.003284
v 208.999293 14.248480 15.210731
v 208.999293 13.485895 11.035325
v 209.690542 14.248480 11.035325
v 209.690542 13.485895 15.210731
v 209.690542 14.248480 15.210731
v 202.505672 13.485895 15.210731
v 203.196921 14.248480 11.035325
v 202.505672 13.485895 11.035325
v 202.505672 14.248480 15.210731
v 208.999293 14.248480 11.035325
v 208.999293 15.592116 17.003284
v 209.690542 15.592116 12.827877
v 209.690542 15.592116 17.003284
v 209.690542 12.142259 12.827877
v 208.999293 13.485895 15.210731
v 208.999293 12.142259 12.827877
v 209.690542 12.142259 17.003284
v 203.196921 12.142259 17.003284
v 203.196921 13.485895 11.035325
v 202.505672 12.142259 17.003284
v 202.505672 12.142259 12.827877
v 202.505672 15.592116 12.827877
v 203.196921 14.248480 15.210731
v 203.196921 15.592116 12.827877
v 202.505672 15.592116 17.003284
v 202.654573 4.074993 -13.804452
v 210.275263 3.429147 -12.531976
v 210.275263 -4.925165 -12.531976
v 201.920951 -4.925165 -12.531976
v 203.277432 0.839553 -24.948651
v 208.918782 0.839553 -24.948651
v 208.918782 -4.801797 -24.948651
v 203.277432 -4.801797 -24.948651
v 201.920951 3.429147 -12.531976
v 209.541641 4.074993 -13.804452
v 203.772819 1.940202 -24.040420
v 208.423395 1.940202 -24.040420
v 201.098107 -5.000000 12.784311
v 209.825705 -3.727599 12.784311
v 202.370508 3.727599 12.784311
v 209.825705 3.727599 12.784311
v 202.370508 -3.727599 12.784311
v 209.825705 -3.727599 5.498405
v 202.370508 3.727599 5.498405
v 209.825705 3.727599 5.498405
#end 84 vertices

#begin 328 normals
vn 0.000000 -0.000000 -1.000000
vn 0.000000 -0.000000 -1.000000
vn 0.000000 -0.000000 -1.000000
vn 0.000000 -0.000000 -1.000000
vn 0.124468 -0.992218 -0.003365
vn -0.124468 -0.992218 -0.003365
vn -0.187076 -0.982346 0.000000
vn 0.187076 -0.982346 0.000000
vn -1.000000 0.000000 -0.000000
vn -1.000000 0.000000 -0.000000
vn -0.888345 0.459176 0.000000
vn -0.888345 0.459176 0.000000
vn 1.000000 0.000000 0.000000
vn 0.888345 0.459176 0.000000
vn 0.888345 0.459176 0.000000
vn 1.000000 0.000000 0.000000
vn 0.000000 1.000000 0.000000
vn 0.000000 1.000000 0.000000
vn 0.000000 1.000000 0.000000
vn 0.000000 1.000000 0.000000
vn 0.000000 0.000000 1.000000
vn 0.000000 0.000000 1.000000
vn 0.000000 0.000000 1.000000
vn 0.000000 0.000000 1.000000
vn -0.829667 0.000000 -0.558258
vn -0.829667 0.000000 -0.558258
vn -0.994085 0.000000 -0.108601
vn -0.994085 0.000000 -0.108601
vn -0.150447 0.987190 -0.053113
vn 0.150447 0.987190 -0.053113
vn 0.000000 0.978936 -0.204165
vn 0.000000 0.978936 -0.204165
vn 0.829667 0.000000 -0.558258
vn 0.829667 0.000000 -0.558258
vn 0.994085 0.000000 -0.108601
vn 0.994085 0.000000 -0.108601
vn -0.124468 -0.992218 -0.003365
vn 0.124468 -0.992218 -0.003365
vn 0.000000 -0.999951 -0.009935
vn 0.000000 -0.999951 -0.009935
vn 0.124468 -0.992218 -0.003365
vn 0.187076 -0.982346 0.000000
vn 0.367547 -0.930005 0.000000
vn 0.367547 -0.930005 0.000000
vn 0.011667 0.000000 0.999932
vn 0.011667 0.000000 0.999932
vn 0.034995 0.000000 0.999387
vn 0.034995 0.000000 0.999387
vn -0.201182 0.979554 0.000000
vn -0.150447 0.987190 -0.053113
vn -0.888345 0.459176 0.000000
vn -0.888345 0.459176 0.000000
vn -0.829667 0.000000 -0.558258
vn -0.829667 0.000000 -0.558258
vn -0.475068 0.000000 -0.879949
vn -0.475068 0.000000 -0.879949
vn 0.829667 0.000000 -0.558258
vn 0.829667 0.000000 -0.558258
vn 0.475068 0.000000 -0.879949
vn 0.475068 0.000000 -0.879949
vn 0.150447 0.987190 -0.053113
vn 0.201182 0.979554 0.000000
vn 0.888345 0.459176 0.000000
vn 0.888345 0.459176 0.000000
vn -0.011667 0.000000 0.999932
vn -0.011667 0.000000 0.999932
vn -0.034995 0.000000 0.999387
vn -0.034995 0.000000 0.999387
vn -0.187076 -0.982346 0.000000
vn -0.124468 -0.992218 -0.003365
vn -0.367547 -0.930005 0.000000
vn -0.367547 -0.930005 0.000000
vn -0.150447 0.987190 -0.053113
vn -0.201182 0.979554 0.000000
vn 0.000000 1.000000 0.000000
vn 0.000000 0.952298 -0.305171
vn -0.201182 0.979554 0.000000
vn 0.201182 0.979554 0.000000
vn 0.000000 1.000000 0.000000
vn 0.000000 1.000000 0.000000
vn 0.201182 0.979554 0.000000
vn 0.150447 0.987190 -0.053113
vn 0.000000 0.952298 -0.305171
vn 0.000000 1.000000 0.000000
vn 0.150447 0.987190 -0.053113
vn -0.150447 0.987190 -0.053113
vn 0.000000 0.952298 -0.305171
vn 0.000000 0.952298 -0.305171
vn -1.000000 0.000000 -0.000000
vn -1.000000 0.000000 -0.000000
vn -1.000000 0.000000 -0.000000
vn -1.000000 0.000000 -0.000000
vn 0.000000 -0.320599 0.947215
vn 0.000000 -0.320599 0.947215
vn 0.057759 -0.896183 0.439909
vn -0.057759 -0.896183 0.439909
vn 1.000000 0.000000 -0.000000
vn 1.000000 0.000000 -0.000000
vn 1.000000 0.000000 -0.000000
vn 1.000000 0.000000 -0.000000
vn 0.000000 0.952298 -0.305171
vn 0.000000 0.952298 -0.305171
vn 0.000000 0.568092 -0.822965
vn 0.000000 0.568092 -0.822965
vn -0.073953 -0.996725 -0.032727
vn -0.057759 -0.896183 0.439909
vn -0.049548 -0.997017 0.059179
vn -0.073953 -0.996725 -0.032727
vn -0.057759 -0.896183 0.439909
vn 0.057759 -0.896183 0.439909
vn 0.049548 -0.997017 0.059179
vn -0.049548 -0.997017 0.059179
vn 0.057759 -0.896183 0.439909
vn 0.073953 -0.996725 -0.032727
vn 0.073953 -0.996725 -0.032727
vn 0.049548 -0.997017 0.059179
vn 0.073953 -0.996725 -0.032727
vn -0.073953 -0.996725 -0.032727
vn -0.073953 -0.996725 -0.032727
vn 0.073953 -0.996725 -0.032727
vn -0.969251 0.000000 -0.246073
vn -0.969251 0.000000 -0.246073
vn -0.969251 0.000000 -0.246073
vn -0.969251 0.000000 -0.246073
vn 0.000000 0.294165 0.955755
vn 0.000000 0.294165 0.955755
vn 0.000000 -0.294165 0.955755
vn 0.000000 -0.294165 0.955755
vn 0.969251 0.000000 -0.246073
vn 0.969251 0.000000 -0.246073
vn 0.969251 0.000000 -0.246073
vn 0.969251 0.000000 -0.246073
vn 0.000000 0.000000 -1.000000
vn 0.000000 0.000000 -1.000000
vn 0.000000 0.000000 -1.000000
vn 0.000000 0.000000 -1.000000
vn -0.049548 -0.997017 0.059179
vn 0.049548 -0.997017 0.059179
vn -0.000000 -1.000000 0.000000
vn -0.000000 -1.000000 0.000000
vn 1.000000 0.000000 0.000000
vn 1.000000 0.000000 0.000000
vn 1.000000 0.000000 0.000000
vn 1.000000 0.000000 0.000000
vn 0.000000 1.000000 0.000000
vn 0.000000 1.000000 0.000000
vn -0.000000 1.000000 0.000000
vn -0.000000 1.000000 0.000000
vn -1.000000 0.000000 0.000000
vn -1.000000 0.000000 0.000000
vn -1.000000 0.000000 0.000000
vn -1.000000 0.000000 0.000000
vn 0.000000 -0.447338 -0.894365
vn 0.000000 0.447338 -0.894365
vn 0.000000 0.447338 -0.894365
vn 0.000000 -0.447338 -0.894365
vn 0.000000 0.948727 -0.316096
vn 0.000000 1.000000 0.000000
vn 0.000000 1.000000 0.000000
vn 0.000000 0.948727 -0.316096
vn 0.000000 -0.294165 0.955755
vn 0.000000 0.294165 0.955755
vn 0.000000 0.447338 0.894365
vn 0.000000 -0.447338 0.894365
vn 0.000000 -1.000000 0.000000
vn 0.000000 -0.948727 -0.316096
vn 0.000000 -0.948727 -0.316096
vn 0.000000 -1.000000 0.000000
vn 0.000000 0.447338 -0.894365
vn 0.000000 -0.447338 -0.894365
vn 0.000000 -0.447338 -0.894365
vn 0.000000 0.447338 -0.894365
vn 0.000000 -0.948727 -0.316096
vn 0.000000 -1.000000 -0.000000
vn 0.000000 -1.000000 -0.000000
vn 0.000000 -0.948727 -0.316096
vn 0.000000 0.294165 0.955755
vn 0.000000 -0.294165 0.955755
vn 0.000000 -0.447338 0.894365
vn 0.000000 0.447338 0.894365
vn 0.000000 1.000000 -0.000000
vn 0.000000 0.948727 -0.316096
vn 0.000000 0.948727 -0.316096
vn 0.000000 1.000000 -0.000000
vn -1.000000 0.000000 -0.000000
vn -1.000000 0.000000 -0.000000
vn -1.000000 0.000000 -0.000000
vn -1.000000 0.000000 -0.000000
vn 0.000000 -0.294165 0.955755
vn 0.000000 -0.447338 0.894365
vn 0.000000 -0.800167 0.599778
vn 0.000000 -0.800167 0.599778
vn 1.000000 0.000000 0.000000
vn 1.000000 0.000000 0.000000
vn 1.000000 0.000000 -0.000000
vn 1.000000 0.000000 -0.000000
vn 0.000000 0.447338 -0.894365
vn 0.000000 0.447338 -0.894365
vn 0.000000 0.948727 -0.316096
vn 0.000000 0.948727 -0.316096
vn -1.000000 0.000000 0.000000
vn -1.000000 0.000000 0.000000
vn -1.000000 0.000000 0.000000
vn -1.000000 0.000000 0.000000
vn 0.000000 -0.447338 -0.894365
vn 0.000000 -0.447338 -0.894365
vn 0.000000 -0.948727 -0.316096
vn 0.000000 -0.948727 -0.316096
vn 1.000000 0.000000 0.000000
vn 1.000000 0.000000 0.000000
vn 1.000000 0.000000 0.000000
vn 1.000000 0.000000 0.000000
vn 0.000000 0.447338 0.894365
vn 0.000000 0.294165 0.955755
vn 0.000000 0.800167 0.599778
vn 0.000000 0.800167 0.599778
vn 1.000000 0.000000 0.000000
vn 1.000000 0.000000 0.000000
vn 1.000000 0.000000 0.000000
vn 1.000000 0.000000 0.000000
vn 0.000000 0.294165 0.955755
vn 0.000000 0.447338 0.894365
vn 0.000000 0.800167 0.599778
vn 0.000000 0.800167 0.599778
vn -1.000000 0.000000 0.000000
vn -1.000000 0.000000 0.000000
vn -1.000000 0.000000 0.000000
vn -1.000000 0.000000 0.000000
vn 0.000000 -0.447338 -0.894365
vn 0.000000 -0.447338 -0.894365
vn 0.000000 -0.948727 -0.316096
vn 0.000000 -0.948727 -0.316096
vn 1.000000 0.000000 -0.000000
vn 1.000000 0.000000 -0.000000
vn 1.000000 0.000000 -0.000000
vn 1.000000 0.000000 -0.000000
vn 0.000000 0.447338 -0.894365
vn 0.000000 0.447338 -0.894365
vn 0.000000 0.948727 -0.316096
vn 0.000000 0.948727 -0.316096
vn -1.000000 0.000000 0.000000
vn -1.000000 0.000000 0.000000
vn -1.000000 0.000000 -0.000000
vn -1.000000 0.000000 -0.000000
vn 0.000000 -0.447338 0.894365
vn 0.000000 -0.294165 0.955755
vn 0.000000 -0.800167 0.599778
vn 0.000000 -0.800167 0.599778
vn -0.971961 0.185254 -0.144820
vn 0.000000 0.991297 0.131646
vn 0.000000 0.991297 0.131646
vn 0.971961 0.185254 -0.144820
vn 0.994085 0.000000 -0.108601
vn 0.000000 -0.999951 -0.009935
vn -0.994085 0.000000 -0.108601
vn 0.000000 -0.999951 -0.009935
vn -0.971961 0.185254 -0.144820
vn -0.994085 0.000000 -0.108601
vn 0.322663 0.946332 0.018552
vn -0.322663 0.946332 0.018552
vn 0.994085 0.000000 -0.108601
vn 0.971961 0.185254 -0.144820
vn 0.000000 -0.999951 -0.009935
vn 0.000000 -0.999951 -0.009935
vn -0.971961 0.185254 -0.144820
vn 0.000000 0.856033 -0.516921
vn 0.000000 0.856033 -0.516921
vn 0.971961 0.185254 -0.144820
vn 0.994085 0.000000 -0.108601
vn 0.000000 -0.999951 -0.009935
vn -0.994085 0.000000 -0.108601
vn 0.000000 -0.999951 -0.009935
vn -0.994085 0.000000 -0.108601
vn -0.971961 0.185254 -0.144820
vn -0.317323 0.831934 -0.455183
vn 0.317323 0.831934 -0.455183
vn 0.971961 0.185254 -0.144820
vn 0.994085 0.000000 -0.108601
vn 0.000000 -0.999951 -0.009935
vn 0.000000 -0.999951 -0.009935
vn 0.000000 0.991297 0.131646
vn 0.000000 0.991297 0.131646
vn 0.322663 0.946332 0.018552
vn -0.322663 0.946332 0.018552
vn 0.971961 0.185254 -0.144820
vn 0.971961 0.185254 -0.144820
vn 0.317323 0.831934 -0.455183
vn 0.322663 0.946332 0.018552
vn 0.000000 0.856033 -0.516921
vn 0.000000 0.856033 -0.516921
vn -0.317323 0.831934 -0.455183
vn 0.317323 0.831934 -0.455183
vn -0.971961 0.185254 -0.144820
vn -0.971961 0.185254 -0.144820
vn -0.322663 0.946332 0.018552
vn -0.317323 0.831934 -0.455183
vn 0.011667 0.000000 0.999932
vn -0.011667 0.000000 0.999932
vn 0.000000 0.000000 1.000000
vn 0.000000 0.000000 1.000000
vn -0.011667 0.000000 0.999932
vn -0.011667 0.000000 0.999932
vn 0.000000 0.000000 1.000000
vn 0.000000 0.000000 1.000000
vn -0.011667 0.000000 0.999932
vn 0.011667 0.000000 0.999932
vn 0.000000 0.000000 1.000000
vn 0.000000 0.000000 1.000000
vn 0.011667 0.000000 0.999932
vn 0.011667 0.000000 0.999932
vn 0.000000 0.000000 1.000000
vn 0.000000 0.000000 1.000000
vn 0.000000 1.000000 0.000000
vn 0.000000 1.000000 0.000000
vn 0.000000 1.000000 0.000000
vn 0.000000 1.000000 0.000000
vn -1.000000 -0.000000 0.000000
vn -1.000000 -0.000000 0.000000
vn -1.000000 -0.000000 0.000000
vn -1.000000 -0.000000 0.000000
vn 0.000000 -1.000000 0.000000
vn 0.000000 -1.000000 0.000000
vn 0.000000 -1.000000 0.000000
vn 0.000000 -1.000000 0.000000
vn 1.000000 -0.000000 0.000000
vn 1.000000 -0.000000 0.000000
vn 1.000000 -0.000000 0.000000
vn 1.000000 -0.000000 0.000000
#end 328 vertex normals

#begin 82 faces
usemtl scene_material
f 1//1 11//2 12//3 10//4 
usemtl scene_material
f 16//5 17//6 6//7 77//8 
usemtl scene_material
f 9//9 14//10 15//11 13//12 
usemtl scene_material
f 2//13 18//14 20//15 19//16 
usemtl scene_material
f 3//17 46//18 49//19 34//20 
usemtl scene_material
f 5//21 82//22 84//23 83//24 
usemtl scene_material
f 16//25 21//26 73//249 68//255 
usemtl scene_material
f 21//29 4//30 66//251 73//250 
usemtl scene_material
f 4//33 17//34 67//253 66//252 
usemtl scene_material
f 17//37 16//38 68//256 67//254 
usemtl scene_material
f 16//41 77//42 14//43 9//44 
usemtl scene_material
f 77//45 7//46 15//47 14//48 
usemtl scene_material
f 7//49 21//50 13//51 15//52 
usemtl scene_material
f 21//53 16//54 9//55 13//56 
usemtl scene_material
f 17//57 4//58 18//59 2//60 
usemtl scene_material
f 4//61 8//62 20//63 18//64 
usemtl scene_material
f 8//65 6//66 19//67 20//68 
usemtl scene_material
f 6//69 17//70 2//71 19//72 
usemtl scene_material
f 21//73 7//74 23//75 25//76 
usemtl scene_material
f 7//77 8//78 24//79 23//80 
usemtl scene_material
f 8//81 4//82 22//83 24//84 
usemtl scene_material
f 4//85 21//86 25//87 22//88 
usemtl scene_material
f 25//89 23//90 27//91 29//92 
usemtl scene_material
f 23//93 24//94 28//95 27//96 
usemtl scene_material
f 24//97 22//98 26//99 28//100 
usemtl scene_material
f 22//101 25//102 29//103 26//104 
usemtl scene_material
f 29//105 27//106 58//107 33//108 
usemtl scene_material
f 27//109 28//110 41//111 58//112 
usemtl scene_material
f 28//113 26//114 30//115 41//116 
usemtl scene_material
f 26//117 29//118 33//119 30//120 
usemtl scene_material
f 33//121 58//122 46//123 3//124 
usemtl scene_material
f 31//125 54//126 40//127 62//128 
usemtl scene_material
f 41//129 30//130 34//131 49//132 
usemtl scene_material
f 30//133 33//134 3//135 34//136 
usemtl scene_material
f 58//137 41//138 54//139 31//140 
usemtl scene_material
f 32//141 42//142 44//143 43//144 
usemtl scene_material
f 49//145 46//146 62//147 40//148 
usemtl scene_material
f 35//149 47//150 45//151 48//152 
usemtl scene_material
f 41//153 49//154 42//155 32//156 
usemtl scene_material
f 36//157 50//158 52//159 51//160 
usemtl scene_material
f 40//161 54//162 43//163 44//164 
usemtl scene_material
f 38//165 55//166 53//167 56//168 
usemtl scene_material
f 46//169 58//170 47//171 35//172 
usemtl scene_material
f 37//173 57//174 59//175 60//176 
usemtl scene_material
f 31//177 62//178 48//179 45//180 
usemtl scene_material
f 39//181 63//182 61//183 64//184 
usemtl scene_material
f 49//185 40//186 50//187 36//188 
usemtl scene_material
f 40//189 44//190 52//191 50//192 
usemtl scene_material
f 44//193 42//194 51//195 52//196 
usemtl scene_material
f 42//197 49//198 36//199 51//200 
usemtl scene_material
f 54//201 41//202 55//203 38//204 
usemtl scene_material
f 41//205 32//206 53//207 55//208 
usemtl scene_material
f 32//209 43//210 56//211 53//212 
usemtl scene_material
f 43//213 54//214 38//215 56//216 
usemtl scene_material
f 58//217 31//218 57//219 37//220 
usemtl scene_material
f 31//221 45//222 59//223 57//224 
usemtl scene_material
f 45//225 47//226 60//227 59//228 
usemtl scene_material
f 47//229 58//230 37//231 60//232 
usemtl scene_material
f 62//233 46//234 63//235 39//236 
usemtl scene_material
f 46//237 35//238 61//239 63//240 
usemtl scene_material
f 35//241 48//242 64//243 61//244 
usemtl scene_material
f 48//245 62//246 39//247 64//248 
usemtl scene_material
f 11//27 1//28 72//271 69//265 
usemtl scene_material
f 12//31 11//32 69//266 70//267 
usemtl scene_material
f 10//35 12//36 70//268 71//269 
usemtl scene_material
f 1//39 10//40 71//270 72//272 
usemtl scene_material
f 68//258 73//257 69//274 72//273 
usemtl scene_material
f 65//260 74//259 76//276 75//275 
usemtl scene_material
f 66//262 67//261 71//278 70//277 
usemtl scene_material
f 67//264 68//263 72//280 71//279 
usemtl scene_material
f 73//281 66//282 74//283 65//284 
usemtl scene_material
f 66//285 70//286 76//287 74//288 
usemtl scene_material
f 70//289 69//290 75//291 76//292 
usemtl scene_material
f 69//293 73//294 65//295 75//296 
usemtl scene_material
f 77//297 6//298 78//299 81//300 
usemtl scene_material
f 6//301 8//302 80//303 78//304 
usemtl scene_material
f 8//305 7//306 79//307 80//308 
usemtl scene_material
f 7//309 77//310 81//311 79//312 
usemtl scene_material
f 81//313 78//314 82//315 5//316 
usemtl scene_material
f 78//317 80//318 84//319 82//320 
usemtl scene_material
f 80//321 79//322 83//323 84//324 
usemtl scene_material
f 79//325 81//326 5//327 83//328 
#end 82 faces
